# xmcd CD database file
#
# Track frame offsets:
#	150
#	20754
#	41556
#	53208
#	80826
#	101602
#	121028
#	143679
#	157729
#	174790
#	199676
#	218606
#	244374
#	263110
#	277370
#	306276
#	328968
#
# Disc length: 4700 seconds
#
# Revision: 0
# Processed by: cddbd v1.5.2PL0 Copyright (c) Steve Scherf et al.
# Submitted via: CDex 1.51
#
DISCID=f4125a11
DTITLE=Various Artist - 100% Blues
DYEAR=2002
DGENRE=Blues
TTITLE0=Alannah Myles - Everybody's Breathing Up
TTITLE1=Roomful Of Blues - There Goes The Neighborhood
TTITLE2=The Last Real Texas Blues Band - Something To Remember You By
TTITLE3=Stevie Ray Vaughan - Ain't Gone 'n' Give Up On Love
TTITLE4=Warpipes - Mr 2 U
TTITLE5=Robbie Williams - One For My Baby
TTITLE6=Oscar Benton - Took Me A Long Time
TTITLE7=Joe Jackson - Goin' Downtown
TTITLE8=Bay City Rollers - Give It To Me Now
TTITLE9=Rick Derringer - You've Got To Love Her With Feeling
TTITLE10=Bet Hand Band - I Am The One
TTITLE11=ZZ Top - Cover Your Rig
TTITLE12=Janis Joplin - One Good Man
TTITLE13=E. Clapton and J. Mayall - Rambin' On My Mind
TTITLE14=Cotton Wells Bell Branch - Down Home Blues
TTITLE15=Lil 'Ed And The Blues Imperials - S.D. Jones
TTITLE16=Junior Wells - Use Me
EXTD=YEAR: 2002
EXTT0=
EXTT1=
EXTT2=
EXTT3=
EXTT4=
EXTT5=
EXTT6=
EXTT7=
EXTT8=
EXTT9=
EXTT10=
EXTT11=
EXTT12=
EXTT13=
EXTT14=
EXTT15=
EXTT16=
PLAYORDER=
